<?xml version="1.0" encoding="utf-8"?>
<!DOCTYPE svg PUBLIC "-//W3C//DTD SVG 1.1//EN" "http://www.w3.org/Graphics/SVG/1.1/DTD/svg11.dtd">
<svg xmlns="http://www.w3.org/2000/svg" x="0px" y="0px" width="80px" height="80px" viewBox="0 0 80 80">
<path fill="#3460F2" d="M30.667,16.105c0,1.967,0,10.739,0,10.739h-7.867v13.133h7.867v39.021h16.162V39.979h10.846
	c0,0,1.018-6.297,1.51-13.183c-1.41,0-12.291,0-12.291,0s0-7.642,0-8.979c0-1.341,1.76-3.146,3.504-3.146c1.736,0,5.404,0,8.805,0
	c0-1.787,0-7.965,0-13.67c-4.535,0-9.697,0-11.975,0C30.268,1,30.667,14.146,30.667,16.105z"/>
</svg>