<?xml version="1.0" encoding="utf-8"?>
<!DOCTYPE svg PUBLIC "-//W3C//DTD SVG 1.1//EN" "http://www.w3.org/Graphics/SVG/1.1/DTD/svg11.dtd">
<svg xmlns="http://www.w3.org/2000/svg" x="0px" y="0px" width="170px" height="70px" viewBox="0 0 170 70">
<path fill="#FFFFFF" d="M147.146,17.289L132.057,42.81l-1.397-25.521h-17.291c-3.439-8.917-11.831-15.462-24.385-15.462
	c-9.439,0-17.699,3.903-23.872,10.076c-0.426,0.426-0.838,0.866-1.245,1.314C60.7,6.282,53.083,1.827,42.043,1.827
	c-12.855,0-21.796,5.682-29.061,13.505l12.295,12.947c4.937-4.843,10.339-8.104,14.064-8.104c3.167,0,4.564,1.677,4.564,4.006
	c0,1.955-0.559,4.098-5.682,7.265L4.878,51.938L0.5,68.145h45.841h8.555h24.012c9.44,0,17.701-3.866,23.873-10.039
	c4.2-4.2,7.475-9.505,9.596-15.397l3.473,25.465h19.374L169.5,17.289H147.146z M34.871,51.099l11.829-6.519
	c2.291-1.267,4.321-2.513,6.12-3.742c-0.035,0.73-0.053,1.465-0.053,2.199c0,2.793,0.41,5.509,1.202,8.062H34.871z M87.44,46.76
	c-1.906,1.904-4.083,2.994-6.625,2.994c-3.722,0-6.718-2.632-6.718-8.622c0-6.264,2.36-13.889,6.354-17.883
	c1.906-1.906,4.084-2.995,6.625-2.995c3.723,0,6.719,2.632,6.719,8.623C93.795,35.141,91.436,42.765,87.44,46.76z"/>
</svg>