<?xml version="1.0" encoding="iso-8859-1"?>
<!DOCTYPE svg PUBLIC "-//W3C//DTD SVG 1.1//EN" "http://www.w3.org/Graphics/SVG/1.1/DTD/svg11.dtd">
<svg xmlns="http://www.w3.org/2000/svg" x="0px" y="0px" width="24px" height="24px" viewBox="0 0 24 24" className="search-icon">
    <path fill="#3460f2" d="M23.347,21.225l-5.088-5.088c1.224-1.659,1.956-3.702,1.956-5.922c0-5.522-4.477-10-10-10s-10,4.478-10,10 s4.477,10,10,10c2.22,0,4.264-0.732,5.923-1.956l5.088,5.087c0.585,0.586,1.535,0.586,2.121,0S23.932,21.811,23.347,21.225z M3.214,10.215c0-3.866,3.134-7,7-7s7,3.134,7,7s-3.134,7-7,7S3.214,14.081,3.214,10.215z"/>
</svg>