<?xml version="1.0" encoding="utf-8"?>
<!DOCTYPE svg PUBLIC "-//W3C//DTD SVG 1.1//EN" "http://www.w3.org/Graphics/SVG/1.1/DTD/svg11.dtd">
<svg xmlns="http://www.w3.org/2000/svg" x="0px" y="0px" width="80px" height="80px" viewBox="0 0 80 80">
<path fill="#3460F2" d="M79,15.724c-1.008,2.141-2.476,3.91-4.287,5.418c-0.936,0.767-1.926,1.473-2.945,2.137
	c-0.475,0.305-0.559,0.266-0.559,0.779c0,0.305,0.002,0.607-0.012,0.911c-0.113,2.271-0.043,4.591-0.335,6.95
	c-0.338,2.706-0.927,5.375-1.739,7.967c-3.148,10.11-9.875,18.965-18.729,24.76c-7.324,4.795-16.007,7.441-24.761,7.504
	C16.99,72.208,8.338,69.334,1,64.856c4.812-0.25,9.683-0.799,14.301-2.217c3.206-0.983,6.434-2.447,8.806-4.885
	c-3.28-0.125-6.572-1.018-9.145-3.133c-2.589-2.135-4.349-5.066-5.058-8.342c2.155,0.496,4.271,0.626,6.451,0.229
	c-3.722-0.636-7.005-2.638-9.377-5.561c-2.551-3.151-3.367-6.851-2.68-10.8c1.913,0.846,4.021,1.998,6.145,1.998
	c-3.013-2.489-5.508-5.746-6.226-9.662c-0.677-3.678-0.265-8.426,1.888-11.562c2.914,3.782,6.41,7.122,10.415,9.743
	c1.972,1.288,4.058,2.398,6.229,3.312c1.998,0.838,4.064,1.41,6.131,2.039c1.034,0.317,2.146,0.457,3.205,0.656
	c1.87,0.354,3.704,0.942,5.588,1.193c0.448,0.059,0.942,0.143,1.396,0.072c0.419-0.062,0.173-0.356,0.115-0.676
	c-0.053-0.316-0.1-0.638-0.132-0.947c-0.144-1.362-0.105-2.737,0.066-4.088c0.318-2.442,1.149-4.812,2.43-6.908
	c3.52-5.758,10.598-8.766,17.152-6.938c1.588,0.443,3.096,1.159,4.478,2.054c0.751,0.49,1.466,1.03,2.146,1.605
	c0.32,0.266,0.633,0.551,0.938,0.836c0.482-0.062,0.961-0.145,1.443-0.243c3.442-0.694,6.66-2.233,9.42-4.401
	c-1.104,4.009-3.586,7.412-6.951,9.826C73.17,17.54,76.148,16.812,79,15.724z"/>
</svg>